<svg width="16" height="16" viewBox="0 0 16 16" fill="none" xmlns="http://www.w3.org/2000/svg">
<path d="M12.9506 3.05124C12.3018 2.39598 11.5299 1.87538 10.6792 1.51934C9.82856 1.1633 8.91594 0.978853 7.99379 0.976584C7.07164 0.974314 6.15813 1.15427 5.30574 1.50611C4.45335 1.85796 3.67888 2.37475 3.02681 3.02681C2.37475 3.67888 1.85796 4.45335 1.50611 5.30574C1.15427 6.15813 0.974314 7.07164 0.976584 7.99379C0.978853 8.91594 1.1633 9.82856 1.51934 10.6792C1.87538 11.5299 2.39598 12.3018 3.05124 12.9506C3.70008 13.6059 4.472 14.1265 5.32265 14.4825C6.1733 14.8386 7.08591 15.023 8.00806 15.0253C8.93021 15.0275 9.84373 14.8476 10.6961 14.4957C11.5485 14.1439 12.323 13.6271 12.975 12.975C13.6271 12.323 14.1439 11.5485 14.4957 10.6961C14.8476 9.84373 15.0275 8.93021 15.0253 8.00806C15.023 7.08591 14.8386 6.1733 14.4825 5.32265C14.1265 4.472 13.6059 3.70008 12.9506 3.05124ZM10.2509 6.50093C10.3993 6.50093 10.5443 6.54491 10.6676 6.62733C10.7909 6.70974 10.8871 6.82687 10.9438 6.96391C11.0006 7.10096 11.0155 7.25176 10.9865 7.39725C10.9576 7.54273 10.8861 7.67637 10.7813 7.78126C10.6764 7.88615 10.5427 7.95758 10.3972 7.98652C10.2518 8.01546 10.101 8.0006 9.96392 7.94384C9.82687 7.88707 9.70974 7.79094 9.62733 7.6676C9.54492 7.54427 9.50093 7.39926 9.50093 7.25093C9.50068 7.15237 9.51991 7.05473 9.55751 6.96362C9.59512 6.87252 9.65035 6.78974 9.72005 6.72005C9.78974 6.65035 9.87252 6.59512 9.96362 6.55751C10.0547 6.51991 10.1524 6.50068 10.2509 6.50093ZM5.75093 6.50093C5.89926 6.50093 6.04427 6.54491 6.1676 6.62733C6.29094 6.70974 6.38707 6.82687 6.44384 6.96391C6.5006 7.10096 6.51546 7.25176 6.48652 7.39725C6.45758 7.54273 6.38615 7.67637 6.28126 7.78126C6.17637 7.88615 6.04273 7.95758 5.89725 7.98652C5.75176 8.01546 5.60096 8.0006 5.46391 7.94384C5.32687 7.88707 5.20974 7.79094 5.12733 7.6676C5.04491 7.54427 5.00093 7.39926 5.00093 7.25093C5.00068 7.15237 5.01991 7.05473 5.05751 6.96362C5.09512 6.87252 5.15035 6.78974 5.22005 6.72005C5.28974 6.65035 5.37252 6.59512 5.46362 6.55751C5.55473 6.51991 5.65237 6.50068 5.75093 6.50093ZM8.00249 12.0009C6.58311 12.0009 5.3853 11.0794 5.01124 9.81874C4.97874 9.70874 4.93843 9.50093 4.93843 9.50093H11.0634C11.0634 9.50093 11.0225 9.70999 10.9906 9.81874C10.6225 11.08 9.42186 12.0009 8.00249 12.0009Z" fill="#E7BF05"/>
</svg>
