<svg width="16" height="16" viewBox="0 0 16 16" fill="none" xmlns="http://www.w3.org/2000/svg">
<path d="M8 11C8.85 11 9.79375 10.8313 10.8313 10.4938C11.8688 10.1563 13.425 9.5625 15.5 8.7125V8.43125C15.5 7.79375 15.2438 7.28125 14.7313 6.89375C14.2188 6.50625 13.6563 6.4 13.0438 6.575C12.8313 6.6375 12.6158 6.7125 12.3973 6.8C12.1788 6.8875 11.888 7 11.525 7.1375C10.7625 7.4625 10.1188 7.6875 9.59375 7.8125C9.06875 7.9375 8.5375 8 8 8C7.4375 8 6.89375 7.9345 6.36875 7.8035C5.84375 7.6725 5.18125 7.44425 4.38125 7.11875C4.08125 6.99375 3.822 6.89075 3.6035 6.80975C3.385 6.72875 3.1755 6.65675 2.975 6.59375C2.3625 6.39375 1.797 6.4875 1.2785 6.875C0.76 7.2625 0.5005 7.78125 0.5 8.43125V8.675C2.1375 9.425 3.575 10 4.8125 10.4C6.05 10.8 7.1125 11 8 11ZM8 15.5C9.725 15.5 11.2408 15.028 12.5473 14.084C13.8538 13.14 14.738 11.9308 15.2 10.4563C13.5625 11.1563 12.1875 11.672 11.075 12.0035C9.9625 12.335 8.9375 12.5005 8 12.5C7.05 12.5 5.96575 12.322 4.74725 11.966C3.52875 11.61 2.2005 11.1005 0.7625 10.4375C1.1875 11.975 2.04375 13.2033 3.33125 14.1223C4.61875 15.0413 6.175 15.5005 8 15.5ZM8 6.5C7.175 6.5 6.46875 6.20625 5.88125 5.61875C5.29375 5.03125 5 4.325 5 3.5C5 2.675 5.29375 1.96875 5.88125 1.38125C6.46875 0.79375 7.175 0.5 8 0.5C8.825 0.5 9.53125 0.79375 10.1188 1.38125C10.7063 1.96875 11 2.675 11 3.5C11 4.325 10.7063 5.03125 10.1188 5.61875C9.53125 6.20625 8.825 6.5 8 6.5Z" fill="#178EC2"/>
</svg>
