<?xml version="1.0" encoding="UTF-8" standalone="no"?>
<svg
   width="53"
   height="8"
   viewBox="0 0 53 8"
   fill="none"
   version="1.1"
   id="svg5"
   sodipodi:docname="five_stars_gold.svg"
   inkscape:version="1.4 (86a8ad7, 2024-10-11)"
   xmlns:inkscape="http://www.inkscape.org/namespaces/inkscape"
   xmlns:sodipodi="http://sodipodi.sourceforge.net/DTD/sodipodi-0.dtd"
   xmlns="http://www.w3.org/2000/svg"
   xmlns:svg="http://www.w3.org/2000/svg">
  <defs
     id="defs5" />
  <sodipodi:namedview
     id="namedview5"
     pagecolor="#505050"
     bordercolor="#eeeeee"
     borderopacity="1"
     inkscape:showpageshadow="0"
     inkscape:pageopacity="0"
     inkscape:pagecheckerboard="0"
     inkscape:deskcolor="#505050"
     inkscape:zoom="8.3490566"
     inkscape:cx="14.911864"
     inkscape:cy="-5.8090395"
     inkscape:window-width="1920"
     inkscape:window-height="1057"
     inkscape:window-x="1016"
     inkscape:window-y="-8"
     inkscape:window-maximized="1"
     inkscape:current-layer="svg5" />
  <path
     d="M4.49978 6.70199L2.31845 7.92498C2.22208 7.98206 2.12134 8.00652 2.01622 7.99836C1.91109 7.99021 1.81911 7.9576 1.74027 7.90052C1.66142 7.84345 1.6001 7.77219 1.5563 7.68675C1.5125 7.6013 1.50374 7.50542 1.53002 7.3991L2.1082 5.08764L0.176543 3.53445C0.0889399 3.46107 0.0342753 3.37741 0.0125496 3.28349C-0.00917605 3.18956 -0.00269342 3.09792 0.0319976 3.00856C0.0666886 2.9192 0.119251 2.84582 0.189684 2.78842C0.260117 2.73102 0.356481 2.69433 0.478775 2.67835L3.02804 2.47044L4.01358 0.293518C4.05738 0.195679 4.12536 0.122299 4.21752 0.0733794C4.30968 0.0244598 4.40376 0 4.49978 0C4.59579 0 4.68988 0.0244598 4.78203 0.0733794C4.87419 0.122299 4.94217 0.195679 4.98598 0.293518L5.97152 2.47044L8.52078 2.67835C8.64342 2.69466 8.73979 2.73135 8.80987 2.78842C8.87995 2.84549 8.93251 2.91887 8.96755 3.00856C9.0026 3.09825 9.00925 3.19005 8.98753 3.28398C8.9658 3.3779 8.91096 3.46139 8.82301 3.53445L6.89135 5.08764L7.46953 7.3991C7.49582 7.50509 7.48706 7.60097 7.44325 7.68675C7.39945 7.77252 7.33813 7.84378 7.25929 7.90052C7.18044 7.95727 7.08846 7.98988 6.98334 7.99836C6.87821 8.00684 6.77747 7.98238 6.6811 7.92498L4.49978 6.70199Z"
     fill="#C8C8C8"
     id="path1"
     style="fill:#ffd700;fillOpacity:1" />
  <path
     d="M15.4998 6.70199L13.3184 7.92498C13.2221 7.98206 13.1213 8.00652 13.0162 7.99836C12.9111 7.99021 12.8191 7.9576 12.7403 7.90052C12.6614 7.84345 12.6001 7.77219 12.5563 7.68675C12.5125 7.6013 12.5037 7.50542 12.53 7.3991L13.1082 5.08764L11.1765 3.53445C11.0889 3.46107 11.0343 3.37741 11.0125 3.28349C10.9908 3.18956 10.9973 3.09792 11.032 3.00856C11.0667 2.9192 11.1193 2.84582 11.1897 2.78842C11.2601 2.73102 11.3565 2.69433 11.4788 2.67835L14.028 2.47044L15.0136 0.293518C15.0574 0.195679 15.1254 0.122299 15.2175 0.0733794C15.3097 0.0244598 15.4038 0 15.4998 0C15.5958 0 15.6899 0.0244598 15.782 0.0733794C15.8742 0.122299 15.9422 0.195679 15.986 0.293518L16.9715 2.47044L19.5208 2.67835C19.6434 2.69466 19.7398 2.73135 19.8099 2.78842C19.88 2.84549 19.9325 2.91887 19.9676 3.00856C20.0026 3.09825 20.0093 3.19005 19.9875 3.28398C19.9658 3.3779 19.911 3.46139 19.823 3.53445L17.8914 5.08764L18.4695 7.3991C18.4958 7.50509 18.4871 7.60097 18.4433 7.68675C18.3995 7.77252 18.3381 7.84378 18.2593 7.90052C18.1804 7.95727 18.0885 7.98988 17.9833 7.99836C17.8782 8.00684 17.7775 7.98238 17.6811 7.92498L15.4998 6.70199Z"
     fill="#C8C8C8"
     id="path2"
     style="fill:#ffd700;fillOpacity:1" />
  <path
     d="M26.4998 6.70199L24.3184 7.92498C24.2221 7.98206 24.1213 8.00652 24.0162 7.99836C23.9111 7.99021 23.8191 7.9576 23.7403 7.90052C23.6614 7.84345 23.6001 7.77219 23.5563 7.68675C23.5125 7.6013 23.5037 7.50542 23.53 7.3991L24.1082 5.08764L22.1765 3.53445C22.0889 3.46107 22.0343 3.37741 22.0125 3.28349C21.9908 3.18956 21.9973 3.09792 22.032 3.00856C22.0667 2.9192 22.1193 2.84582 22.1897 2.78842C22.2601 2.73102 22.3565 2.69433 22.4788 2.67835L25.028 2.47044L26.0136 0.293518C26.0574 0.195679 26.1254 0.122299 26.2175 0.0733794C26.3097 0.0244598 26.4038 0 26.4998 0C26.5958 0 26.6899 0.0244598 26.782 0.0733794C26.8742 0.122299 26.9422 0.195679 26.986 0.293518L27.9715 2.47044L30.5208 2.67835C30.6434 2.69466 30.7398 2.73135 30.8099 2.78842C30.88 2.84549 30.9325 2.91887 30.9676 3.00856C31.0026 3.09825 31.0093 3.19005 30.9875 3.28398C30.9658 3.3779 30.911 3.46139 30.823 3.53445L28.8914 5.08764L29.4695 7.3991C29.4958 7.50509 29.4871 7.60097 29.4433 7.68675C29.3995 7.77252 29.3381 7.84378 29.2593 7.90052C29.1804 7.95727 29.0885 7.98988 28.9833 7.99836C28.8782 8.00684 28.7775 7.98238 28.6811 7.92498L26.4998 6.70199Z"
     fill="#C8C8C8"
     id="path3"
     style="fill:#ffd700;fillOpacity:1" />
  <path
     d="M37.4998 6.70199L35.3184 7.92498C35.2221 7.98206 35.1213 8.00652 35.0162 7.99836C34.9111 7.99021 34.8191 7.9576 34.7403 7.90052C34.6614 7.84345 34.6001 7.77219 34.5563 7.68675C34.5125 7.6013 34.5037 7.50542 34.53 7.3991L35.1082 5.08764L33.1765 3.53445C33.0889 3.46107 33.0343 3.37741 33.0125 3.28349C32.9908 3.18956 32.9973 3.09792 33.032 3.00856C33.0667 2.9192 33.1193 2.84582 33.1897 2.78842C33.2601 2.73102 33.3565 2.69433 33.4788 2.67835L36.028 2.47044L37.0136 0.293518C37.0574 0.195679 37.1254 0.122299 37.2175 0.0733794C37.3097 0.0244598 37.4038 0 37.4998 0C37.5958 0 37.6899 0.0244598 37.782 0.0733794C37.8742 0.122299 37.9422 0.195679 37.986 0.293518L38.9715 2.47044L41.5208 2.67835C41.6434 2.69466 41.7398 2.73135 41.8099 2.78842C41.88 2.84549 41.9325 2.91887 41.9676 3.00856C42.0026 3.09825 42.0093 3.19005 41.9875 3.28398C41.9658 3.3779 41.911 3.46139 41.823 3.53445L39.8914 5.08764L40.4695 7.3991C40.4958 7.50509 40.4871 7.60097 40.4433 7.68675C40.3995 7.77252 40.3381 7.84378 40.2593 7.90052C40.1804 7.95727 40.0885 7.98988 39.9833 7.99836C39.8782 8.00684 39.7775 7.98238 39.6811 7.92498L37.4998 6.70199Z"
     fill="#C8C8C8"
     id="path4"
     style="fill:#ffd700;fillOpacity:1" />
  <path
     d="M48.4998 6.70199L46.3184 7.92498C46.2221 7.98206 46.1213 8.00652 46.0162 7.99836C45.9111 7.99021 45.8191 7.9576 45.7403 7.90052C45.6614 7.84345 45.6001 7.77219 45.5563 7.68675C45.5125 7.6013 45.5037 7.50542 45.53 7.3991L46.1082 5.08764L44.1765 3.53445C44.0889 3.46107 44.0343 3.37741 44.0125 3.28349C43.9908 3.18956 43.9973 3.09792 44.032 3.00856C44.0667 2.9192 44.1193 2.84582 44.1897 2.78842C44.2601 2.73102 44.3565 2.69433 44.4788 2.67835L47.028 2.47044L48.0136 0.293518C48.0574 0.195679 48.1254 0.122299 48.2175 0.0733794C48.3097 0.0244598 48.4038 0 48.4998 0C48.5958 0 48.6899 0.0244598 48.782 0.0733794C48.8742 0.122299 48.9422 0.195679 48.986 0.293518L49.9715 2.47044L52.5208 2.67835C52.6434 2.69466 52.7398 2.73135 52.8099 2.78842C52.88 2.84549 52.9325 2.91887 52.9676 3.00856C53.0026 3.09825 53.0093 3.19005 52.9875 3.28398C52.9658 3.3779 52.911 3.46139 52.823 3.53445L50.8914 5.08764L51.4695 7.3991C51.4958 7.50509 51.4871 7.60097 51.4433 7.68675C51.3995 7.77252 51.3381 7.84378 51.2593 7.90052C51.1804 7.95727 51.0885 7.98988 50.9833 7.99836C50.8782 8.00684 50.7775 7.98238 50.6811 7.92498L48.4998 6.70199Z"
     fill="#C8C8C8"
     id="path5"
     style="fill:#ffd700;fillOpacity:1" />
</svg>
