<svg width="122" height="21" viewBox="0 0 122 21" fill="none" xmlns="http://www.w3.org/2000/svg">
<path d="M7.36558 6.5136L9.97466 1.25929C10.0506 1.10723 10.1674 0.97933 10.312 0.889939C10.4565 0.800548 10.6232 0.753198 10.7931 0.753198C10.9631 0.753198 11.1297 0.800548 11.2743 0.889939C11.4188 0.97933 11.5357 1.10723 11.6116 1.25929L14.2207 6.5136L20.0534 7.36119C20.2217 7.38452 20.38 7.45468 20.5103 7.56366C20.6405 7.67265 20.7375 7.81606 20.7902 7.97754C20.8429 8.13901 20.8491 8.31204 20.8081 8.47688C20.7672 8.64172 20.6807 8.79172 20.5586 8.90977L16.3387 12.9971L17.3349 18.7716C17.4624 19.5128 16.6791 20.0772 16.0093 19.7277L10.7931 17.0001L5.57598 19.7277C4.90714 20.0782 4.12382 19.5128 4.25136 18.7706L5.24759 12.9961L1.02767 8.90876C0.906142 8.79064 0.820188 8.64078 0.779582 8.47624C0.738976 8.3117 0.745345 8.13906 0.797965 7.97796C0.850586 7.81685 0.947347 7.67374 1.07725 7.56489C1.20715 7.45604 1.36499 7.38582 1.53282 7.3622L7.36558 6.5136Z" fill="#FF831D" stroke="#FF831D" stroke-width="1.5" stroke-linecap="round" stroke-linejoin="round"/>
<path d="M32.4686 6.5136L35.0776 1.25929C35.1536 1.10723 35.2704 0.97933 35.415 0.889939C35.5595 0.800548 35.7261 0.753198 35.8961 0.753198C36.0661 0.753198 36.2327 0.800548 36.3773 0.889939C36.5218 0.97933 36.6386 1.10723 36.7146 1.25929L39.3237 6.5136L45.1564 7.36119C45.3247 7.38452 45.4829 7.45468 45.6132 7.56366C45.7435 7.67265 45.8405 7.81606 45.8932 7.97754C45.9459 8.13901 45.9521 8.31204 45.9111 8.47688C45.8702 8.64172 45.7837 8.79172 45.6616 8.90977L41.4416 12.9971L42.4379 18.7716C42.5654 19.5128 41.7821 20.0772 41.1122 19.7277L35.8961 17.0001L30.679 19.7277C30.0101 20.0782 29.2268 19.5128 29.3543 18.7706L30.3506 12.9961L26.1306 8.90876C26.0091 8.79064 25.9232 8.64078 25.8826 8.47624C25.8419 8.3117 25.8483 8.13906 25.9009 7.97796C25.9536 7.81685 26.0503 7.67374 26.1802 7.56489C26.3101 7.45604 26.468 7.38582 26.6358 7.3622L32.4686 6.5136Z" fill="#FF831D" stroke="#FF831D" stroke-width="1.5" stroke-linecap="round" stroke-linejoin="round"/>
<path d="M57.5716 6.5136L60.1807 1.25929C60.2566 1.10723 60.3734 0.97933 60.518 0.889939C60.6626 0.800548 60.8292 0.753198 60.9991 0.753198C61.1691 0.753198 61.3357 0.800548 61.4803 0.889939C61.6249 0.97933 61.7417 1.10723 61.8176 1.25929L64.4267 6.5136L70.2595 7.36119C70.4277 7.38452 70.586 7.45468 70.7163 7.56366C70.8465 7.67265 70.9435 7.81606 70.9962 7.97754C71.0489 8.13901 71.0551 8.31204 71.0142 8.47688C70.9732 8.64172 70.8867 8.79172 70.7646 8.90977L66.5447 12.9971L67.5409 18.7716C67.6685 19.5128 66.8851 20.0772 66.2153 19.7277L60.9991 17.0001L55.782 19.7277C55.1131 20.0782 54.3298 19.5128 54.4574 18.7706L55.4536 12.9961L51.2337 8.90876C51.1121 8.79064 51.0262 8.64078 50.9856 8.47624C50.945 8.3117 50.9514 8.13906 51.004 7.97796C51.0566 7.81685 51.1534 7.67374 51.2833 7.56489C51.4132 7.45604 51.571 7.38582 51.7388 7.3622L57.5716 6.5136Z" fill="#FF831D" stroke="#FF831D" stroke-width="1.5" stroke-linecap="round" stroke-linejoin="round"/>
<path d="M82.6746 6.5136L85.2836 1.25929C85.3596 1.10723 85.4764 0.97933 85.621 0.889939C85.7655 0.800548 85.9321 0.753198 86.1021 0.753198C86.2721 0.753198 86.4387 0.800548 86.5833 0.889939C86.7278 0.97933 86.8446 1.10723 86.9206 1.25929L89.5297 6.5136L95.3624 7.36119C95.5307 7.38452 95.689 7.45468 95.8192 7.56366C95.9495 7.67265 96.0465 7.81606 96.0992 7.97754C96.1519 8.13901 96.1581 8.31204 96.1171 8.47688C96.0762 8.64172 95.9897 8.79172 95.8676 8.90977L91.6477 12.9971L92.6439 18.7716C92.7714 19.5128 91.9881 20.0772 91.3183 19.7277L86.1021 17.0001L80.885 19.7277C80.2161 20.0782 79.4328 19.5128 79.5603 18.7706L80.5566 12.9961L76.3366 8.90876C76.2151 8.79064 76.1292 8.64078 76.0886 8.47624C76.048 8.3117 76.0543 8.13906 76.1069 7.97796C76.1596 7.81685 76.2563 7.67374 76.3862 7.56489C76.5161 7.45604 76.674 7.38582 76.8418 7.3622L82.6746 6.5136Z" fill="#FF831D" stroke="#FF831D" stroke-width="1.5" stroke-linecap="round" stroke-linejoin="round"/>
<path d="M107.778 6.5136L110.387 1.25929C110.463 1.10723 110.579 0.97933 110.724 0.889939C110.868 0.800548 111.035 0.753198 111.205 0.753198C111.375 0.753198 111.542 0.800548 111.686 0.889939C111.831 0.97933 111.948 1.10723 112.024 1.25929L114.633 6.5136L120.465 7.36119C120.634 7.38452 120.792 7.45468 120.922 7.56366C121.052 7.67265 121.149 7.81606 121.202 7.97754C121.255 8.13901 121.261 8.31204 121.22 8.47688C121.179 8.64172 121.093 8.79172 120.971 8.90977L116.751 12.9971L117.747 18.7716C117.874 19.5128 117.091 20.0772 116.421 19.7277L111.205 17.0001L105.988 19.7277C105.319 20.0782 104.536 19.5128 104.663 18.7706L105.66 12.9961L101.44 8.90876C101.318 8.79064 101.232 8.64078 101.192 8.47624C101.151 8.3117 101.157 8.13906 101.21 7.97796C101.263 7.81685 101.359 7.67374 101.489 7.56489C101.619 7.45604 101.777 7.38582 101.945 7.3622L107.778 6.5136Z" fill="#FF831D" stroke="#FF831D" stroke-width="1.5" stroke-linecap="round" stroke-linejoin="round"/>
</svg>
