<svg width="29" height="21" viewBox="0 0 29 21" fill="none" xmlns="http://www.w3.org/2000/svg">
<path fill-rule="evenodd" clip-rule="evenodd" d="M9.88154 11.7444C9.74234 13.043 9.37114 14.0799 8.72486 14.9993C7.85817 16.2258 6.40486 17.3717 4.002 18.5897C3.84785 18.6583 3.70908 18.758 3.59411 18.8825C3.47914 19.0071 3.39037 19.154 3.33318 19.3144C3.276 19.4747 3.2516 19.6452 3.26146 19.8153C3.27132 19.9855 3.31523 20.1519 3.39054 20.3044C3.46584 20.4569 3.57097 20.5923 3.69953 20.7024C3.8281 20.8125 3.97742 20.895 4.13843 20.9449C4.29945 20.9948 4.4688 21.011 4.6362 20.9927C4.80361 20.9743 4.96558 20.9216 5.11229 20.838C7.68086 19.5394 9.54183 18.1686 10.7466 16.459C11.9745 14.7208 12.4286 12.7628 12.4286 10.4861V2.93611C12.4286 2.1574 12.123 1.41059 11.5792 0.859965C11.0353 0.309339 10.2977 0 9.52857 0H2.9C2.13087 0 1.39325 0.309339 0.849391 0.859965C0.305535 1.41059 0 2.1574 0 2.93611V8.80832C0 10.429 1.2992 11.7444 2.9 11.7444H9.88154ZM26.453 11.7444C26.3138 13.043 25.9426 14.0799 25.2963 14.9993C24.4296 16.2258 22.9763 17.3717 20.5734 18.5897C20.4193 18.6583 20.2805 18.758 20.1655 18.8825C20.0506 19.0071 19.9618 19.154 19.9046 19.3144C19.8474 19.4747 19.823 19.6452 19.8329 19.8153C19.8427 19.9855 19.8867 20.1519 19.962 20.3044C20.0373 20.4569 20.1424 20.5923 20.271 20.7024C20.3995 20.8125 20.5488 20.895 20.7099 20.9449C20.8709 20.9948 21.0402 21.011 21.2076 20.9927C21.375 20.9743 21.537 20.9216 21.6837 20.838C24.2523 19.5394 26.1133 18.1686 27.318 16.459C28.5459 14.7208 29 12.7628 29 10.4861V2.93611C29 2.1574 28.6945 1.41059 28.1506 0.859965C27.6068 0.309339 26.8691 0 26.1 0H19.4714C18.7023 0 17.9647 0.309339 17.4208 0.859965C16.877 1.41059 16.5714 2.1574 16.5714 2.93611V8.80832C16.5714 10.429 17.8706 11.7444 19.4714 11.7444H26.453Z" fill="#5E2AA3" fill-opacity="0.36"/>
</svg>
