<svg width="12" height="13" viewBox="0 0 12 13" fill="none" xmlns="http://www.w3.org/2000/svg">
<path d="M0.741042 1.77606C0.739663 1.47869 0.856123 1.18595 1.06484 0.962126C1.27356 0.738303 1.55747 0.601706 1.8542 0.582338L10.8278 0.00224684C11.1245 -0.0167502 11.4097 0.0830606 11.6206 0.279755C11.8315 0.47645 11.951 0.753944 11.9527 1.05128L12 10.0434C11.9911 10.3347 11.8702 10.6178 11.6625 10.8333C11.4549 11.0488 11.1768 11.1799 10.8866 11.1991C10.5965 11.2175 10.3172 11.1224 10.1074 10.9339C9.89767 10.7453 9.77382 10.478 9.76189 10.1881L9.72885 3.90419L1.91573 12.2827C1.70684 12.5067 1.42265 12.6434 1.12567 12.6626C0.828695 12.6818 0.54326 12.582 0.332159 12.3851C0.121058 12.1882 0.00158387 11.9105 1.90685e-05 11.6129C-0.00154604 11.3153 0.114927 11.0223 0.323815 10.7983L8.13693 2.41971L1.866 2.82509C1.56926 2.84409 1.28411 2.74428 1.07318 2.54758C0.86225 2.35089 0.74279 2.07339 0.741042 1.77606Z" fill="black"/>
</svg>
