<svg width="70" height="53" viewBox="0 0 70 53" fill="none" xmlns="http://www.w3.org/2000/svg">
<path d="M54.9875 8.4028C54.9564 8.71389 54.938 9.06876 54.9299 9.45359L50.5125 11.5632C49.8937 11.4618 46.8255 11.6404 42.2491 9.38215C41.0888 8.80952 39.9551 8.50535 38.8663 8.50535C37.8809 8.50629 36.9099 8.74125 36.0331 9.19089C34.8775 8.94087 33.2126 8.30026 32.239 8.30256C30.036 8.31409 25.0275 10.108 23.6403 10.2613C22.283 10.4099 20.8855 10.7832 19.4787 11.3777C16.922 10.6334 13.7166 9.41787 11.9999 8.74615L0 0V28.1246L8.81874 32.3208C8.94663 32.171 9.09296 31.9406 9.25196 31.6548L9.52502 31.7816C9.65868 32.1272 9.80615 32.4713 9.96746 32.8139C8.99963 34.4431 8.88441 36.2785 9.65752 37.8743C10.32 39.2396 11.554 40.1982 12.9285 40.4667C13.0034 41.317 13.2892 42.1396 13.7708 42.8528C14.6349 44.1283 16.0083 44.8898 17.4474 44.8898C17.5779 44.8898 17.7078 44.8829 17.8368 44.8691C18.0419 45.4233 18.3426 45.9395 18.7332 46.3865C19.6019 47.3855 20.8186 47.9581 22.0699 47.9581C22.1621 47.9581 22.2531 47.955 22.343 47.9489C22.502 48.5526 22.7727 49.1241 23.1506 49.6333C24.0205 50.8086 25.3628 51.5079 26.7431 51.5079C27.6003 51.5079 28.4195 51.2452 29.1419 50.7533C30.5384 51.6497 31.7528 52.2799 32.83 52.667C33.3704 52.8871 33.9327 53 34.5065 53C35.8637 53 37.1807 52.3663 38.1208 51.2579C38.4699 50.8454 38.7534 50.3846 38.9608 49.8914C39.367 50.014 39.7889 50.0769 40.2132 50.0781C41.6557 50.0781 43.0233 49.3718 43.9693 48.1367C44.419 47.5516 44.7445 46.8807 44.9256 46.1653C45.0247 46.1722 45.123 46.1757 45.2205 46.1757C46.8877 46.1757 48.4835 45.1975 49.381 43.6225C49.8513 42.8031 50.101 41.8757 50.1057 40.931C51.7533 40.6856 53.2039 39.5138 53.9102 37.8051C54.6061 36.1218 54.4172 34.2645 53.4459 32.716L57.9336 30.187C58.0488 30.581 58.1617 30.9439 58.2712 31.2389L69.1304 25.4607V1.89187L54.9875 8.4028ZM54.9864 11.902C55.0578 13.1486 55.188 14.5577 55.3562 16.029C54.4345 14.4805 53.2708 13.7742 51.8259 13.4228L54.9864 11.902ZM48.9628 39.273C46.4879 38.4215 41.3365 32.3657 41.3365 32.3657H41.4379C41.9622 32.3288 43.0948 31.777 44.3656 32.0408C42.37 30.3264 40.1752 31.777 38.6808 30.8886C39.0276 32.0005 40.6948 32.3507 41.1222 32.3646L46.0582 38.1047C48.2934 40.7028 46.7368 43.9174 44.4958 44.429C42.9922 43.6973 38.7465 38.6474 38.7465 38.6474C38.8916 38.6209 39.7523 38.3513 40.6291 38.4665C38.6047 36.9525 36.3096 38.266 34.9477 37.3155C35.7197 39.2223 38.2625 38.7338 38.5287 38.6877L41.1695 42.059C43.2826 44.755 41.6223 47.8694 39.3778 48.2911C37.388 47.5917 36.0965 45.103 36.0965 45.103C36.2969 45.0707 36.9675 44.7723 37.9215 44.9106C36.2243 43.4231 34.2484 44.7723 33.0605 43.9255C33.7944 45.5247 35.6241 45.1606 35.7266 45.1491C37.5563 48.0307 35.6586 51.0355 33.3912 51.1254H33.3889L33.3865 51.1266C32.0247 50.8904 30.5983 49.8016 28.9875 48.684C29.5406 48.071 30.0291 46.9937 30.0291 46.9937C31.6468 44.0649 29.5475 41.4748 27.3803 41.6972C29.1385 42.1776 30.4566 44.4221 29.0843 46.9142L28.4817 47.9281C27.8273 49.1206 26.8053 49.8407 26.0541 49.752C24.8973 49.6115 23.267 47.9224 23.9525 45.5397C24.2175 45.2977 26.7731 41.3884 26.7731 41.3884C28.5301 38.5587 26.5576 35.8499 24.3846 35.9421C26.1152 36.5262 27.3284 38.8467 25.8363 41.2547L23.759 44.4935C23.0504 45.6388 22.1333 46.2874 21.2588 46.1676C19.9015 45.9833 18.9498 44.3276 19.1676 42.6189C19.156 42.6293 20.6631 40.9436 20.6631 40.9436C22.6656 38.3271 20.9511 35.4052 18.7816 35.2519C20.4488 36.0285 21.442 38.4757 19.7402 40.7028L19.0051 41.6038C18.1986 42.6615 17.2273 43.1996 16.377 42.9876C14.893 42.6155 14.121 39.8387 14.8227 39.0817C15.3746 38.4861 16.9243 36.6 16.9243 36.6C18.9256 33.9822 17.2135 31.0615 15.0416 30.9059C16.71 31.6848 17.7032 34.132 16.0014 36.3603L15.2663 37.259C14.4552 38.3259 13.4804 38.8617 12.6244 38.6439C10.8408 38.1923 9.95017 35.4386 11.6565 33.2033C11.6565 33.2033 11.077 31.3622 10.8155 30.5752L9.95594 30.1766C11.9711 25.4815 15.0151 15.1188 15.1557 11.6761C16.6397 12.205 20.5571 13.3318 20.973 13.3341L20.9707 13.3364C25.1877 12.0114 29.6074 12.1577 31.6237 11.3789C32.277 11.13 33.5767 11.1139 34.9547 11.902C34.094 12.6566 33.2805 13.5553 32.436 14.393C30.4174 16.3966 22.9121 19.5213 24.3593 22.8073C25.6082 25.6428 29.1258 28.544 35.0261 23.9894L38.3443 23.5331L43.5049 26.0795L50.1184 32.8715C52.4769 35.2888 51.1415 38.5702 48.9628 39.273ZM50.6219 31.7896C49.8638 30.3725 47.5007 28.0485 45.2701 26.1486L45.2562 26.1348C46.2851 26.1762 47.3647 24.5194 48.76 24.3915C47.7853 23.6472 46.1699 24.5067 45.6664 24.6427C42.8908 25.3893 38.5771 21.8971 38.5771 21.8971L34.45 22.4916C34.45 22.4916 29.5417 28.4817 25.4066 23.547C23.161 20.867 31.2988 17.3667 33.3036 15.3746C35.8718 12.8225 38.16 9.70015 42.385 11.8271C45.8945 13.5968 47.2772 13.4873 51.9849 14.3065C53.3883 14.552 54.3607 15.1949 55.4034 16.4496C55.8943 20.579 56.6881 25.1589 57.4497 28.3458C57.0568 28.6765 53.689 30.9416 50.6219 31.7896Z" fill="url(#paint0_linear_341_2723)"/>
<defs>
<linearGradient id="paint0_linear_341_2723" x1="34.5652" y1="0" x2="34.5652" y2="53" gradientUnits="userSpaceOnUse">
<stop stop-color="white"/>
<stop offset="1" stop-color="#ACACAC"/>
</linearGradient>
</defs>
</svg>
