<svg width="28" height="20" viewBox="0 0 28 20" fill="none" xmlns="http://www.w3.org/2000/svg">
<path fill-rule="evenodd" clip-rule="evenodd" d="M9.8195 11.125C9.6935 12.286 9.3575 13.213 8.7725 14.035C7.988 15.1315 6.6725 16.156 4.4975 17.245C4.35797 17.3063 4.23236 17.3954 4.12829 17.5068C4.02422 17.6181 3.94387 17.7495 3.89211 17.8928C3.84034 18.0362 3.81826 18.1886 3.82718 18.3407C3.83611 18.4929 3.87586 18.6417 3.94402 18.778C4.01218 18.9143 4.10734 19.0354 4.22371 19.1338C4.34009 19.2322 4.47525 19.306 4.62099 19.3506C4.76674 19.3952 4.92003 19.4097 5.07156 19.3933C5.2231 19.3769 5.36971 19.3298 5.5025 19.255C7.8275 18.094 9.512 16.8685 10.6025 15.34C11.714 13.786 12.125 12.0355 12.125 10V3.25C12.125 2.55381 11.8484 1.88613 11.3562 1.39384C10.8639 0.901562 10.1962 0.625 9.5 0.625H3.5C2.80381 0.625 2.13613 0.901562 1.64384 1.39384C1.15156 1.88613 0.875 2.55381 0.875 3.25V8.5C0.875 9.949 2.051 11.125 3.5 11.125H9.8195ZM24.8195 11.125C24.6935 12.286 24.3575 13.213 23.7725 14.035C22.988 15.1315 21.6725 16.156 19.4975 17.245C19.358 17.3063 19.2324 17.3954 19.1283 17.5068C19.0242 17.6181 18.9439 17.7495 18.8921 17.8928C18.8403 18.0362 18.8183 18.1886 18.8272 18.3407C18.8361 18.4929 18.8759 18.6417 18.944 18.778C19.0122 18.9143 19.1073 19.0354 19.2237 19.1338C19.3401 19.2322 19.4752 19.306 19.621 19.3506C19.7667 19.3952 19.92 19.4097 20.0716 19.3933C20.2231 19.3769 20.3697 19.3298 20.5025 19.255C22.8275 18.094 24.512 16.8685 25.6025 15.34C26.714 13.786 27.125 12.0355 27.125 10V3.25C27.125 2.55381 26.8484 1.88613 26.3562 1.39384C25.8639 0.901562 25.1962 0.625 24.5 0.625H18.5C17.8038 0.625 17.1361 0.901562 16.6438 1.39384C16.1516 1.88613 15.875 2.55381 15.875 3.25V8.5C15.875 9.949 17.051 11.125 18.5 11.125H24.8195Z" fill="black" fill-opacity="0.19"/>
</svg>
