<svg width="32" height="32" viewBox="0 0 32 32" fill="none" xmlns="http://www.w3.org/2000/svg">
<path d="M14.668 12.0013H17.3346V9.33463H14.668M16.0013 26.668C10.1213 26.668 5.33464 21.8813 5.33464 16.0013C5.33464 10.1213 10.1213 5.33464 16.0013 5.33464C21.8813 5.33464 26.668 10.1213 26.668 16.0013C26.668 21.8813 21.8813 26.668 16.0013 26.668ZM16.0013 2.66797C14.2503 2.66797 12.5165 3.01285 10.8989 3.68291C9.28118 4.35297 7.81133 5.3351 6.57321 6.57321C4.07273 9.0737 2.66797 12.4651 2.66797 16.0013C2.66797 19.5375 4.07273 22.9289 6.57321 25.4294C7.81133 26.6675 9.28118 27.6496 10.8989 28.3197C12.5165 28.9898 14.2503 29.3346 16.0013 29.3346C19.5375 29.3346 22.9289 27.9299 25.4294 25.4294C27.9299 22.9289 29.3346 19.5375 29.3346 16.0013C29.3346 14.2503 28.9898 12.5165 28.3197 10.8989C27.6496 9.28118 26.6675 7.81133 25.4294 6.57321C24.1913 5.3351 22.7214 4.35297 21.1037 3.68291C19.4861 3.01285 17.7523 2.66797 16.0013 2.66797ZM14.668 22.668H17.3346V14.668H14.668V22.668Z" fill="#744CBF"/>
</svg>
