<svg width="33" height="33" viewBox="0 0 33 33" fill="none" xmlns="http://www.w3.org/2000/svg">
<path d="M2.03906 9.17578C2.03906 7.8238 2.57614 6.52719 3.53213 5.57119C4.48813 4.6152 5.78474 4.07813 7.13672 4.07812H25.4883C26.8403 4.07812 28.1369 4.6152 29.0929 5.57119C30.0489 6.52719 30.5859 7.8238 30.5859 9.17578V19.3711C30.5859 20.0405 30.4541 20.7034 30.1979 21.3219C29.9417 21.9404 29.5662 22.5023 29.0929 22.9757C28.6195 23.449 28.0575 23.8245 27.4391 24.0807C26.8206 24.3369 26.1577 24.4688 25.4883 24.4688H17.7154L11.4697 29.9334C11.1807 30.1861 10.8251 30.3501 10.4453 30.406C10.0655 30.4618 9.67773 30.4071 9.32823 30.2484C8.97873 30.0897 8.68234 29.8337 8.4745 29.5109C8.26667 29.1882 8.15618 28.8125 8.15625 28.4286V24.4688H7.13672C5.78474 24.4688 4.48813 23.9317 3.53213 22.9757C2.57614 22.0197 2.03906 20.7231 2.03906 19.3711V9.17578ZM7.13672 6.11719C6.32553 6.11719 5.54756 6.43943 4.97397 7.01303C4.40037 7.58663 4.07812 8.36459 4.07812 9.17578V19.3711C4.07812 20.1823 4.40037 20.9602 4.97397 21.5338C5.54756 22.1074 6.32553 22.4297 7.13672 22.4297H10.1953V28.3389L16.9487 22.4297H25.4883C26.2995 22.4297 27.0774 22.1074 27.651 21.5338C28.2246 20.9602 28.5469 20.1823 28.5469 19.3711V9.17578C28.5469 8.36459 28.2246 7.58663 27.651 7.01303C27.0774 6.43943 26.2995 6.11719 25.4883 6.11719H7.13672Z" fill="#744CBF"/>
</svg>
